<?xml version="1.0" encoding="UTF-8"?><svg id="_レイヤー_2" xmlns="http://www.w3.org/2000/svg" xmlns:xlink="http://www.w3.org/1999/xlink" viewBox="0 0 333 333"><defs><style>.cls-1{fill:#fff;}.cls-2{fill:#e6e6e6;}.cls-3{fill:#e50452;}.cls-4{fill:#80ab40;}.cls-5{fill:none;}.cls-6{fill:#436e34;}.cls-7{fill:url(#linear-gradient);}.cls-8{fill:#f984ef;}</style><linearGradient id="linear-gradient" x1="92.97" y1="125.28" x2="195.92" y2="125.28" gradientUnits="userSpaceOnUse"><stop offset="0" stop-color="#80ab40"/><stop offset=".99" stop-color="#436e34"/></linearGradient></defs><g id="_レイヤー_1-2"><g><circle class="cls-4" cx="166.5" cy="166.5" r="166.5"/><circle class="cls-1" cx="166.5" cy="166.5" r="155.16"/><line class="cls-5" x1="164.38" y1="92.13" x2="164.36" y2="68.34"/><line class="cls-8" x1="150.64" y1="141.87" x2="150.61" y2="142.03"/><g><path class="cls-4" d="m96.88,254.03v-11.99h2.44v9.96h6.07v2.04h-8.51Z"/><path class="cls-4" d="m128.17,254.03h-2.65l-1.06-2.75h-4.83l-1,2.75h-2.59l4.71-12.09h2.58l4.84,12.09Zm-4.49-4.78l-1.67-4.49-1.63,4.49h3.3Z"/><path class="cls-4" d="m139.57,254.03v-12.09h3.65l2.19,8.25,2.17-8.25h3.66v12.09h-2.27v-9.52l-2.4,9.52h-2.35l-2.39-9.52v9.52h-2.27Z"/><path class="cls-4" d="m163.81,254.03v-12.09h3.92c1.48,0,2.45.06,2.9.18.69.18,1.27.58,1.74,1.18.47.61.7,1.39.7,2.35,0,.74-.13,1.37-.4,1.87-.27.51-.61.9-1.03,1.19-.41.29-.84.48-1.27.57-.58.11-1.43.17-2.53.17h-1.59v4.56h-2.44Zm2.44-10.05v3.43h1.34c.96,0,1.6-.06,1.93-.19s.58-.32.76-.59.28-.58.28-.94c0-.44-.13-.8-.39-1.09s-.58-.47-.98-.54c-.29-.06-.88-.08-1.76-.08h-1.18Z"/><path class="cls-4" d="m185.21,254.03v-12.09h2.44v4.76h4.78v-4.76h2.44v12.09h-2.44v-5.29h-4.78v5.29h-2.44Z"/><path class="cls-4" d="m207.52,241.94h2.44v6.55c0,1.04.03,1.71.09,2.02.11.5.35.89.75,1.19s.93.45,1.61.45,1.21-.14,1.57-.43.56-.63.63-1.04c.07-.41.11-1.1.11-2.05v-6.69h2.44v6.35c0,1.45-.07,2.48-.2,3.08-.13.6-.38,1.1-.73,1.52-.35.41-.83.74-1.42.99-.6.24-1.37.37-2.33.37-1.15,0-2.03-.13-2.63-.4-.6-.27-1.07-.61-1.42-1.04-.35-.43-.57-.87-.68-1.34-.16-.69-.24-1.72-.24-3.07v-6.45Z"/><path class="cls-4" d="m229.89,254.03v-12.09h2.38l4.95,8.07v-8.07h2.27v12.09h-2.45l-4.87-7.88v7.88h-2.27Z"/></g><g><path class="cls-4" d="m58.7,208.66v19.11h-5.14v-7.38h-11.39v7.38h-5.14v-19.11h5.14v6.93h11.39v-6.93h5.14Z"/><path class="cls-4" d="m85.8,226.92c.08.15.14.29.18.42.05.13.09.27.13.42h-5.77c-.04-.13-.08-.25-.11-.35s-.08-.2-.11-.3l-1.02-2.32h-11.3l-.99,2.29c-.04.11-.08.23-.11.34s-.07.23-.09.34h-5.91c.04-.15.08-.29.13-.42.05-.13.11-.27.18-.42l6.84-15.15c.55-1.19,1.26-2.07,2.15-2.66.88-.58,2.01-.87,3.39-.87s2.45.29,3.35.87c.89.59,1.62,1.47,2.16,2.66l6.9,15.15Zm-8.56-6.33l-2.94-6.84c-.1-.21-.22-.36-.37-.45-.15-.09-.32-.14-.51-.14-.17,0-.33.04-.48.13-.15.09-.27.24-.37.47l-2.91,6.84h7.57Z"/><path class="cls-4" d="m102.03,208.66c1.36,0,2.49.18,3.41.55.91.37,1.69.87,2.33,1.51s1.18,1.43,1.56,2.32c.38.89.56,1.81.56,2.77,0,.85-.15,1.66-.44,2.45-.29.78-.7,1.49-1.23,2.13-.66.79-1.49,1.42-2.49,1.88-1,.46-2.23.69-3.7.69h-8.79v4.81h-5.12v-17.92c0-.79.41-1.19,1.24-1.19h12.66Zm.11,9.61c.57,0,1.02-.08,1.37-.24.35-.16.63-.38.83-.66.3-.4.45-.85.45-1.36,0-.55-.16-1.03-.48-1.44-.21-.26-.49-.47-.83-.62-.35-.15-.8-.23-1.34-.23h-8.54c-.25,0-.37.13-.37.39v4.16h8.9Z"/><path class="cls-4" d="m125.85,208.66c1.36,0,2.49.18,3.41.55.91.37,1.69.87,2.33,1.51s1.18,1.43,1.56,2.32c.38.89.56,1.81.56,2.77,0,.85-.15,1.66-.44,2.45-.29.78-.7,1.49-1.23,2.13-.66.79-1.49,1.42-2.49,1.88-1,.46-2.23.69-3.7.69h-8.79v4.81h-5.12v-17.92c0-.79.41-1.19,1.24-1.19h12.66Zm.11,9.61c.57,0,1.02-.08,1.37-.24.35-.16.63-.38.83-.66.3-.4.45-.85.45-1.36,0-.55-.16-1.03-.48-1.44-.21-.26-.49-.47-.83-.62-.35-.15-.8-.23-1.34-.23h-8.54c-.25,0-.37.13-.37.39v4.16h8.9Z"/><path class="cls-4" d="m132.94,209.31c-.15-.15-.26-.27-.32-.37-.07-.09-.12-.19-.16-.28h6.3c.04.08.09.17.15.28.07.11.16.24.3.37l4.8,5.23c.13.13.26.2.4.2s.26-.07.39-.2l4.78-5.23c.24-.25.4-.46.48-.65h6.19c-.06.1-.12.19-.18.28-.07.1-.17.22-.33.37l-8.96,9.89v8.56h-5.17v-8.9l-8.68-9.55Z"/><path class="cls-4" d="m165.65,209.51c-.08-.15-.14-.29-.18-.42-.05-.13-.09-.27-.13-.42h6.05c.06.25.12.47.2.68l5.71,13.2c.09.21.21.36.35.45.14.09.3.14.47.14s.32-.04.45-.13c.13-.08.25-.24.34-.47l5.65-13.2c.09-.21.17-.43.23-.68h5.96c-.04.15-.08.29-.13.42-.05.13-.11.27-.18.42l-6.84,15.15c-.55,1.19-1.26,2.07-2.15,2.64-.88.58-2.01.86-3.36.86-2.64,0-4.48-1.17-5.54-3.5l-6.9-15.15Z"/><path class="cls-4" d="m211.52,226.92c.08.15.14.29.18.42.05.13.09.27.13.42h-5.77c-.04-.13-.08-.25-.11-.35s-.08-.2-.11-.3l-1.02-2.32h-11.3l-.99,2.29c-.04.11-.08.23-.11.34s-.07.23-.09.34h-5.91c.04-.15.08-.29.13-.42.05-.13.11-.27.18-.42l6.84-15.15c.55-1.19,1.26-2.07,2.15-2.66.88-.58,2.01-.87,3.39-.87s2.45.29,3.35.87c.89.59,1.62,1.47,2.16,2.66l6.9,15.15Zm-8.56-6.33l-2.94-6.84c-.1-.21-.22-.36-.37-.45-.15-.09-.32-.14-.51-.14-.17,0-.33.04-.48.13-.15.09-.27.24-.37.47l-2.91,6.84h7.57Z"/><path class="cls-4" d="m218.72,227.76c-1.17,0-2.15-.13-2.95-.38s-1.44-.64-1.92-1.16c-.48-.52-.82-1.17-1.03-1.95-.21-.78-.31-1.69-.31-2.73v-12.89h5.14v12.41c0,.7.12,1.17.35,1.43s.68.38,1.34.38h13.26v4.89h-13.88Z"/><path class="cls-4" d="m240.31,227.76c-1.17,0-2.15-.13-2.95-.38s-1.44-.64-1.92-1.16c-.48-.52-.82-1.17-1.03-1.95-.21-.78-.31-1.69-.31-2.73v-12.89h5.14v12.41c0,.7.12,1.17.35,1.43s.68.38,1.34.38h13.26v4.89h-13.88Z"/><path class="cls-4" d="m276.24,208.66v5.06h-14.53c-.3,0-.45.16-.45.48v2.18h14.89v3.67h-14.89v2.32c0,.34.15.51.45.51h14.53v4.89h-17.41c-1.79,0-2.69-.88-2.69-2.66v-13.88c0-1.71.9-2.57,2.71-2.57h17.38Z"/><path class="cls-4" d="m277.88,209.31c-.15-.15-.26-.27-.32-.37-.07-.09-.12-.19-.16-.28h6.3c.04.08.09.17.15.28.07.11.16.24.3.37l4.8,5.23c.13.13.26.2.4.2s.26-.07.39-.2l4.78-5.23c.24-.25.4-.46.48-.65h6.19c-.06.1-.12.19-.18.28-.07.1-.17.22-.33.37l-8.96,9.89v8.56h-5.17v-8.9l-8.68-9.55Z"/></g><g><path class="cls-4" d="m129.33,274.11v-8.99h6.66v1.52h-4.85v1.99h4.51v1.51h-4.51v2.45h5.02v1.51h-6.83Z"/><path class="cls-4" d="m139.76,271.18l1.77-.17c.11.59.32,1.03.65,1.31.33.28.76.42,1.32.42.58,0,1.02-.12,1.32-.37.3-.25.44-.54.44-.87,0-.21-.06-.39-.19-.54s-.34-.28-.65-.39c-.21-.07-.7-.2-1.45-.39-.97-.24-1.66-.54-2.05-.89-.55-.49-.83-1.1-.83-1.81,0-.46.13-.89.39-1.28.26-.4.63-.7,1.12-.91.49-.21,1.08-.31,1.77-.31,1.13,0,1.98.25,2.55.74.57.49.87,1.16.9,1.98l-1.82.08c-.08-.46-.24-.79-.5-1-.26-.2-.64-.3-1.15-.3s-.94.11-1.24.33c-.19.14-.29.33-.29.56,0,.21.09.39.27.55.23.19.78.39,1.67.6.88.21,1.54.42,1.96.65.42.22.75.53.99.91.24.39.36.86.36,1.43,0,.52-.14,1-.43,1.45-.29.45-.69.78-1.21,1-.52.22-1.17.33-1.95.33-1.14,0-2.01-.26-2.62-.79-.61-.53-.97-1.29-1.09-2.3Z"/><path class="cls-4" d="m153.13,274.11v-7.47h-2.67v-1.52h7.14v1.52h-2.66v7.47h-1.81Z"/><path class="cls-4" d="m159.88,274.11v-1.72h1.72v1.72h-1.72Z"/><path class="cls-4" d="m177.33,272.51v1.6h-6.04c.07-.61.26-1.18.59-1.72.33-.54.97-1.26,1.94-2.16.78-.72,1.25-1.21,1.43-1.47.24-.36.36-.71.36-1.05,0-.38-.1-.68-.31-.89s-.49-.31-.86-.31-.65.11-.86.32c-.21.22-.34.58-.37,1.08l-1.72-.17c.1-.95.42-1.63.96-2.04.54-.41,1.21-.62,2.02-.62.89,0,1.58.24,2.09.72.51.48.76,1.07.76,1.78,0,.4-.07.79-.22,1.16-.14.37-.38.75-.69,1.15-.21.27-.59.65-1.13,1.15-.54.5-.89.83-1.03.99s-.26.32-.35.48h3.42Z"/><path class="cls-4" d="m183.92,265.08c.87,0,1.55.31,2.04.93.58.74.88,1.96.88,3.66s-.29,2.92-.88,3.67c-.49.61-1.16.92-2.04.92s-1.58-.34-2.12-1.01-.8-1.87-.8-3.6.29-2.91.88-3.65c.49-.61,1.16-.92,2.04-.92Zm0,1.43c-.21,0-.39.07-.56.2-.16.13-.29.37-.38.71-.12.44-.18,1.19-.18,2.25s.05,1.78.16,2.17.24.66.4.79c.16.13.35.2.55.2s.39-.07.56-.2c.16-.13.29-.37.38-.71.12-.44.18-1.19.18-2.24s-.05-1.78-.16-2.17c-.11-.39-.24-.66-.4-.79-.16-.13-.35-.2-.56-.2Z"/><path class="cls-4" d="m194.91,274.11h-1.72v-6.49c-.63.59-1.37,1.02-2.22,1.31v-1.56c.45-.15.94-.43,1.46-.84s.89-.89,1.09-1.44h1.4v9.02Z"/><path class="cls-4" d="m200.03,272.03l1.67-.18c.04.34.15.59.32.75.17.16.4.25.68.25.36,0,.66-.16.91-.49.25-.33.41-1.01.48-2.04-.43.5-.98.75-1.63.75-.71,0-1.32-.27-1.83-.82s-.77-1.26-.77-2.13.27-1.65.81-2.2c.54-.56,1.23-.84,2.07-.84.91,0,1.66.35,2.24,1.06.58.7.88,1.86.88,3.48s-.3,2.83-.91,3.56-1.4,1.09-2.38,1.09c-.7,0-1.27-.19-1.7-.56-.43-.37-.71-.93-.83-1.68Zm3.9-3.76c0-.56-.13-.99-.38-1.29s-.55-.46-.89-.46-.58.13-.79.38c-.21.25-.32.66-.32,1.23s.12,1.01.34,1.28c.23.27.52.41.86.41s.61-.13.84-.39c.23-.26.34-.65.34-1.15Z"/></g><g><path class="cls-7" d="m195.92,163.88c-1.81,1.7-2.41,2.51-2.86,3.1-2.01,2.61-4.42,4.87-6.8,7.16-3.33,3.45-7.22,6.37-11.4,8.72-1.27.78-5.61,2.74-6.96,3.37-.08.03-.17.06-.25.1,0,0-.02,0-.02.01-21.28,10.09-39.8.2-40.18,0,0,0,0,0,0,0-2.5-.94-4.93-2.06-7.2-3.46-4.18-2.35-8.06-5.27-11.4-8.72-2.37-2.29-4.49-4.83-6.36-7.54-5.54-7.99-8.78-17.51-9.39-27.2-.87-12.41,2.84-25.02,10.1-35.11,1.16-1.4,2.14-2.99,3.49-4.19,2.3-2.92,5.22-5.26,8.13-7.55,2.84-2.06,5.84-3.9,9-5.42.01-5.26.01-10.51,0-15.77-1.85-.2-3.89-.72-4.97-2.38-1.95-2.43-1.44-6.44,1.21-8.16,1.93-1.45,4.47-1.1,6.73-1.03,3.25-.16,6.5,0,9.76-.06,2.46,0,4.91,0,7.37,0,1.21,0,2.43,0,3.64,0s2.43,0,3.64,0c2.46,0,4.91,0,7.37,0,3.25.06,6.51-.1,9.76.06,2.26-.07,4.79-.42,6.73,1.03,2.64,1.71,3.15,5.73,1.21,8.16-1.08,1.66-3.12,2.18-4.97,2.38-.01,5.21-.01,10.43,0,15.65-1.83-1.88-3.68-4.82-4.68-6.61-.31-.56-.55-1.01-.67-1.29.35,1.32,1.31,7.16.66,10.56-.71,3.7,1.75,5.96,1.75,5.96-.99.35-2.74-2.86-2.85-3.04.17,1.15.42,2.29.7,3.34-1.34-.62-2.47-1.06-3.29-1.36-.82-.29-1.34-.44-1.46-.47v-23.06c-4.64.1-9.27.1-13.9.07-4.63.02-9.26.03-13.88-.07.01,1.5,0,3,.02,4.5,2.7.01,5.39-.02,8.09.02,1.41-.29,1.45,2.57.01,2.29-2.7.06-5.4,0-8.11.04,0,1.2,0,2.4,0,3.6,2.34.01,4.68,0,7.03,0,.66.04,1.42-.06,1.94.44.33.76.24,2.11-.86,2.08-2.7.06-5.4,0-8.11.02,0,1.18,0,2.37,0,3.56,2.98.03,5.96-.06,8.94.07.06.73.57,2.05-.52,2.22-2.8.21-5.62.02-8.43.1,0,1.37,0,2.75,0,4.12,0,0,0,0-.02,0-.01,0-.02,0-.04.01-.47.13-3.72,1.1-7.93,3.47-1.07.6-2.2,1.29-3.37,2.09-.12.08-.23.16-.35.24-.54.36-1.07.74-1.58,1.14-.55.39-1.07.82-1.58,1.27-.01,0-.02.01-.03.02-.57.47-1.14.97-1.7,1.5-.29.26-.59.51-.9.75-.49.54-.99,1.08-1.48,1.63,0,0-.01.01-.02.02-.6.65-1.2,1.34-1.78,2.06-.05.06-.1.12-.15.18-5.59,6.99-9.99,17.08-9.54,31.44.01.3.02.6.02.89.42,1.65.5,3.38.96,5.02,1.11,4.94,3.21,9.62,5.87,13.91,2.74,4.16,6.16,7.84,10.03,10.97,2.43,1.82,5.04,3.38,7.75,4.73,0,0,0,0,0,0,.01,0,.03.02.06.03.14.07.49.25,1.04.5.02,0,.03.01.05.02,4.5,2.01,20.52,7.81,38.65-.76.02-.01.03-.02.05-.02,2.55-1.3,5-2.78,7.3-4.5,2.5-2.02,8.49-8.33,13.16-13.66.11.02.22.05.33.07,1.02.21,3.02,1.16,4.44,1.87.26.13.5.25.71.36h0c.07.04.15.08.22.11.07.14.16.31.25.49.04.08.08.16.12.24.55,1.07,1.27,2.57,1.69,3.69Z"/><g><path class="cls-6" d="m204.06,149.97l-1.64,1.7-5.3,5.51h0s-.52.54-.52.54h0s-.32.34-.32.34l-.81.84-.21.21-.16.17-.37.39-.03.03-.14.15-.33.34c-.04-.08-.08-.16-.12-.24-.1-.18-.18-.35-.25-.49-.07-.03-.14-.07-.22-.11l.1-.1.13-.12h.01s.01-.02.01-.02l.05-.04h0s.1-.1.1-.1l.08-.08.12-.11.05-.05.11-.11s0,0,0,0l.02-.02.18-.17.08-.07h0s.37-.36.37-.36l.4-.39s0,0,0,0l8.28-7.96.14.14.19.19Z"/><g><path class="cls-6" d="m263.57,90.08c.43-.61.79-1.09,1.02-1.35-1.21,1.03-6.86,4.96-10.76,5.99-4.24,1.11-5.38,4.82-5.38,4.82-.89-.89,1.78-4.53,1.78-4.53-4.74,3.21-8.4,7.64-8.4,7.64.03-1.81.9-3.11.9-3.11-4.3,2.48-8.05,7.65-8.05,7.65-.12-1.42,1.22-3.35,1.22-3.35-5.37,4.02-8.09,8.72-8.09,8.72-.21-1.22.19-2.58.19-2.58-5.33,4.53-7.12,9.41-7.12,9.41-.64-1.47.18-3.27.18-3.27-4.72,4.71-6,11.09-6,11.09-.42-2.14-.16-2.22.02-3.99-3.4,3.63-4.73,10-4.73,10-.94-1-.96-2.7-.96-2.7-3.3,4.15-4.72,12.05-4.72,12.05-1.06-2.12-.02-5.54-.02-5.54,0,0-3.31,6.22-4.82,11.55-.88,3.09-5.97,10.87-5.97,10.87,0,0,.36-.23.93-.6l68.78-68.78Z"/><path class="cls-4" d="m204.73,153.49c5.32-1.51,11.55-4.82,11.55-4.82,0,0-3.41,1.04-5.54-.02,0,0,7.9-1.42,12.05-4.72,0,0-1.7-.02-2.7-.96,0,0,6.37-1.33,10-4.73-1.76.19-1.85.44-3.99.02,0,0,6.38-1.27,11.09-6,0,0-1.8.82-3.27.18,0,0,4.88-1.79,9.41-7.12,0,0-1.36.4-2.57.19,0,0,4.7-2.72,8.72-8.1,0,0-1.93,1.34-3.35,1.22,0,0,5.18-3.75,7.65-8.05,0,0-1.31.87-3.11.9,0,0,4.43-3.67,7.64-8.4,0,0-3.64,2.67-4.53,1.78,0,0,3.71-1.14,4.82-5.38.8-3.05,3.4-7.18,4.97-9.41l-68.78,68.78c2.15-1.37,7.5-4.67,9.94-5.37Z"/></g><g><g><g><path class="cls-6" d="m214.18,69.44c.03-.7.07-1.26.12-1.59-.44,1.43-2.9,7.42-5.45,10.22-2.78,3.04-1.79,6.55-1.79,6.55-1.16-.25-.9-4.48-.9-4.48-2.11,4.95-2.75,10.32-2.75,10.32-.89-1.45-.88-2.92-.88-2.92-2.13,4.15-2.46,10.15-2.46,10.15-.82-1.06-.74-3.27-.74-3.27-2.2,5.92-1.96,11.02-1.96,11.02-.79-.85-1.16-2.13-1.16-2.13-1.91,6.3-.84,11.07-.84,11.07-1.25-.84-1.52-2.68-1.52-2.68-1.33,6.13.91,11.83.91,11.83-1.42-1.48-1.26-1.68-2.01-3.17-.84,4.6,1.36,10.31,1.36,10.31-1.25-.31-2.14-1.65-2.14-1.65-.49,4.96,2.41,11.93,2.41,11.93-1.92-1.14-2.84-4.36-2.84-4.36,0,0,.55,6.61,2.07,11.59.88,2.89.82,11.64.82,11.64,0,0,.16-.37.43-.95l19.33-89.43Z"/><path class="cls-4" d="m199.98,149.56c3.44-3.91,6.67-9.7,6.67-9.7,0,0-2.17,2.56-4.39,2.81,0,0,5.52-5.15,7.12-9.87,0,0-1.36.85-2.63.62,0,0,4.36-4.3,5.49-8.83-1.3,1.05-1.24,1.3-3.14,2.05,0,0,4.4-4.26,5.72-10.39,0,0-1.01,1.57-2.49,1.81,0,0,2.95-3.91,3.81-10.43,0,0-.87,1.01-1.94,1.46,0,0,2.32-4.55,2.77-10.84,0,0-.84,2.04-2.03,2.67,0,0,2.18-5.6,1.95-10.26,0,0-.59,1.35-2,2.3,0,0,1.63-5.16,1.76-10.54,0,0-1.52,3.96-2.67,3.71,0,0,2.35-2.79,1.07-6.71-.92-2.82-.97-7.41-.86-9.97l-19.33,89.43c1-2.17,3.55-7.52,5.12-9.31Z"/></g><g><path class="cls-6" d="m170.36,91.26c-.27-.48-.47-.87-.58-1.11.3,1.14,1.12,6.16.57,9.08-.61,3.18,1.51,5.12,1.51,5.12-.88.31-2.45-2.63-2.45-2.63.63,4.18,2.42,8.03,2.42,8.03-1.19-.6-1.79-1.59-1.79-1.59.28,3.65,2.54,7.8,2.54,7.8-.99-.37-1.85-1.88-1.85-1.88.97,4.86,3.24,8.17,3.24,8.17-.88-.24-1.66-.94-1.66-.94,1.32,4.99,4.01,7.74,4.01,7.74-1.18-.04-2.12-1.16-2.12-1.16,1.64,4.65,5.49,7.53,5.49,7.53-1.56-.4-1.53-.6-2.65-1.29,1.34,3.42,5.16,6.34,5.16,6.34-.96.31-2.11-.22-2.11-.22,1.72,3.52,6.53,6.98,6.53,6.98-1.75.03-3.7-1.75-3.7-1.75,0,0,3.09,4.19,6.16,6.89,1.78,1.57,5.35,7.44,5.35,7.44,0,0-.04-.31-.1-.81l-23.95-67.75Z"/><path class="cls-4" d="m193.9,150.68c.68-4.03.46-9.24.46-9.24,0,0-.39,2.61-1.78,3.69,0,0,1.57-5.72.69-9.54,0,0-.56,1.13-1.5,1.49,0,0,1.14-4.67.03-8.17-.44,1.24-.29,1.38-1.25,2.67,0,0,1.18-4.66-.47-9.3,0,0-.03,1.46-.92,2.24,0,0,.36-3.83-1.75-8.54,0,0-.17,1.03-.7,1.78,0,0-.32-4-2.62-8.39,0,0,.28,1.71-.25,2.62,0,0-.85-4.65-2.93-7.67,0,0,.16,1.15-.39,2.36,0,0-1.04-4.12-3.17-7.77,0,0,.62,3.27-.26,3.58,0,0,.42-2.84-2.05-4.93-1.78-1.51-3.71-4.55-4.69-6.31l23.95,67.75c-.23-1.87-.73-6.49-.41-8.34Z"/></g><g><path class="cls-6" d="m194.5,159.8s-.03-.01-.06-.03c0,0-.01,0-.02-.01,0,0-.01,0-.01,0-.01,0-.03-.01-.05-.02h-.02c-.11-.07-.28-.16-.49-.27-.07-.03-.14-.07-.22-.11h0c-.21-.11-.45-.23-.71-.36-1.41-.71-3.41-1.67-4.44-1.87-.11-.02-.22-.04-.33-.07-2.71-.59-5.76-1.89-5.98-1.98.16.03,1.89.37,2.92-.25,0,0-4.25-.41-6.59-1.98,0,0,.9-.08,1.39-.63,0,0-3.43-.43-5.5-2.07.94.02,1,.16,2.11-.16,0,0-3.43-.4-6.13-2.69.07.02,1.01.33,1.74-.05,0,0-2.66-.74-5.29-3.37,0,0,.74.15,1.37-.01,0,0-2.61-1.24-4.97-3.91,0,0,1.08.63,1.82.5,0,0-2.9-1.76-4.4-3.93,0,0,.73.4,1.69.34,0,0-2.5-1.75-4.41-4.12.1.06,2.05,1.24,2.47.74,0,0-2.02-.44-2.79-2.64-.71-2.01-3.04-4.84-3.64-5.44.15.11.42.28.76.48l34.81,29.56,3.74,3.17.28.24.04.04.02.02s.01,0,.01.01c0,0,0,0,.01,0l.23.19.08.07s.01,0,.02.01l.03.03.05.05h0s.02.02.02.02h0s0,0,0,0l.05.04c.06.08.12.15.16.22l.08.11v.02s.02.01.03.02c.01.01.02.03.03.04.02.03.04.05.05.06Z"/><path class="cls-4" d="m190.87,154.31c-1.03-2.75-3.05-5.91-3.05-5.91,0,0,.7,1.76.23,2.93,0,0-1.1-4.12-3.02-6.18,0,0,.06.9-.39,1.47,0,0-.98-3.32-2.94-5.09.18.93.31.96.18,2.11,0,0-.95-3.32-3.66-5.62,0,0,.51.92.24,1.73,0,0-1.16-2.51-4.18-4.68,0,0,.27.7.21,1.36,0,0-1.65-2.37-4.66-4.27,0,0,.79.97.79,1.72,0,0-2.21-2.58-4.59-3.71,0,0,.52.66.61,1.61,0,0-2.14-2.19-4.78-3.68,0,0,1.57,1.81,1.14,2.32,0,0-.76-1.92-3.06-2.32-1.65-.29-3.95-1.49-5.2-2.23l39.41,33.46c-.82-1.08-2.8-3.77-3.27-5.03Z"/></g></g><g><g><path class="cls-6" d="m283.87,139.13c.7-.03,1.26-.07,1.58-.12-1.43.44-7.42,2.9-10.22,5.45-3.04,2.78-6.55,1.79-6.55,1.79.25,1.16,4.49.9,4.49.9-4.95,2.11-10.32,2.75-10.32,2.75,1.45.89,2.92.88,2.92.88-4.15,2.14-10.15,2.46-10.15,2.46,1.06.82,3.27.74,3.27.74-5.92,2.2-11.02,1.96-11.02,1.96.85.79,2.13,1.16,2.13,1.16-6.3,1.91-11.07.84-11.07.84.84,1.25,2.68,1.52,2.68,1.52-6.13,1.33-11.83-.91-11.83-.91,1.48,1.42,1.68,1.26,3.17,2.01-4.6.84-10.31-1.36-10.31-1.36.31,1.25,1.65,2.14,1.65,2.14-4.96.49-11.93-2.41-11.93-2.41,1.14,1.92,4.37,2.84,4.37,2.84,0,0-6.61-.55-11.59-2.07-2.9-.88-11.64-.82-11.64-.82,0,0,.37-.16.95-.43l89.43-19.33Z"/><path class="cls-4" d="m203.75,153.33c3.91-3.44,9.7-6.67,9.7-6.67,0,0-2.56,2.17-2.81,4.39,0,0,5.15-5.52,9.87-7.12,0,0-.85,1.36-.62,2.63,0,0,4.3-4.36,8.83-5.49-1.05,1.3-1.29,1.24-2.05,3.14,0,0,4.26-4.4,10.39-5.72,0,0-1.57,1.01-1.81,2.49,0,0,3.91-2.95,10.43-3.81,0,0-1.01.87-1.46,1.94,0,0,4.55-2.32,10.84-2.77,0,0-2.04.84-2.67,2.03,0,0,5.6-2.18,10.26-1.95,0,0-1.35.59-2.3,2,0,0,5.16-1.63,10.54-1.76,0,0-3.96,1.52-3.71,2.67,0,0,2.79-2.35,6.71-1.07,2.82.92,7.41.98,9.97.86l-89.43,19.33c2.17-1,7.52-3.55,9.31-5.12Z"/></g><g><path class="cls-6" d="m262.05,182.95c.48.27.88.47,1.11.58-1.14-.3-6.16-1.12-9.08-.57-3.18.61-5.12-1.5-5.12-1.5-.31.88,2.63,2.45,2.63,2.45-4.18-.63-8.04-2.42-8.04-2.42.6,1.19,1.59,1.79,1.59,1.79-3.65-.28-7.8-2.54-7.8-2.54.37.99,1.88,1.85,1.88,1.85-4.86-.97-8.17-3.24-8.17-3.24.24.88.94,1.66.94,1.66-4.99-1.32-7.75-4.01-7.75-4.01.04,1.19,1.16,2.12,1.16,2.12-4.65-1.64-7.53-5.49-7.53-5.49.4,1.56.6,1.54,1.29,2.65-3.42-1.34-6.34-5.16-6.34-5.16-.31.96.22,2.11.22,2.11-3.52-1.71-6.98-6.53-6.98-6.53-.03,1.75,1.75,3.7,1.75,3.7,0,0-4.19-3.09-6.89-6.16-1.57-1.78-7.44-5.35-7.44-5.35,0,0,.31.04.81.1l67.75,23.95Z"/><path class="cls-4" d="m202.63,159.41c4.03-.69,9.24-.46,9.24-.46,0,0-2.61.39-3.69,1.78,0,0,5.72-1.57,9.53-.69,0,0-1.13.56-1.49,1.5,0,0,4.67-1.14,8.17-.03-1.24.44-1.38.29-2.67,1.25,0,0,4.66-1.18,9.3.47,0,0-1.46.03-2.24.92,0,0,3.83-.36,8.54,1.75,0,0-1.03.17-1.78.7,0,0,4,.32,8.39,2.62,0,0-1.71-.28-2.62.25,0,0,4.65.85,7.67,2.93,0,0-1.15-.16-2.36.39,0,0,4.12,1.03,7.77,3.17,0,0-3.27-.62-3.58.25,0,0,2.84-.42,4.93,2.05,1.51,1.78,4.55,3.71,6.31,4.69l-67.75-23.95c1.87.23,6.49.73,8.34.41Z"/></g><g><path class="cls-6" d="m227.91,199.33c-.6-.6-3.42-2.92-5.44-3.64-2.2-.77-2.64-2.79-2.64-2.79-.49.42.68,2.37.74,2.47-2.37-1.91-4.12-4.41-4.12-4.41-.06.96.34,1.69.34,1.69-2.17-1.5-3.93-4.4-3.93-4.4-.13.75.5,1.83.5,1.83-2.67-2.36-3.91-4.97-3.91-4.97-.17.64-.01,1.38-.01,1.38-2.63-2.63-3.37-5.3-3.37-5.3-.38.72-.07,1.67-.05,1.74-2.29-2.7-2.69-6.13-2.69-6.13-.31,1.11-.18,1.17-.16,2.11-1.64-2.07-2.07-5.5-2.07-5.5-.54.49-.63,1.39-.63,1.39-1.57-2.34-1.98-6.59-1.98-6.59-.62,1.03-.29,2.75-.25,2.92-.1-.23-1.5-3.53-2.05-6.31-.05-.26-.15-.58-.28-.94-.41-1.12-1.14-2.62-1.69-3.69-.04-.08-.08-.16-.12-.24-.1-.18-.18-.35-.25-.49-.04-.08-.08-.15-.11-.21-.07-.12-.12-.22-.16-.3-.01-.02-.02-.04-.02-.05,0,0,0-.01,0-.01,0,0-.01-.01-.01-.02-.02-.03-.03-.05-.03-.06,0,0,.03.02.06.05.01,0,.02.02.04.03,0,0,.01.01.02.02,0,0,.01,0,.01.01,0,0,0,0,.01,0,.06.05.14.11.24.18.02.02.05.04.08.06l.04.05h.01s0,.01,0,.01l.03.04h0s.02.04.02.04h0s.01.02.01.02l.2.23.08.11v.02s.03.01.03.01l.04.04.1.11,2.62,3.08,30.26,35.63c.21.35.37.61.48.76Z"/><path class="cls-4" d="m199,162.44c2.75,1.03,5.91,3.05,5.91,3.05,0,0-1.76-.7-2.93-.23,0,0,4.12,1.1,6.18,3.02,0,0-.9-.06-1.47.39,0,0,3.32.98,5.09,2.94-.93-.17-.96-.32-2.11-.18,0,0,3.32.95,5.62,3.66,0,0-.92-.51-1.73-.24,0,0,2.51,1.16,4.68,4.18,0,0-.7-.27-1.36-.21,0,0,2.37,1.65,4.27,4.66,0,0-.97-.79-1.72-.79,0,0,2.58,2.21,3.71,4.59,0,0-.65-.52-1.61-.61,0,0,2.19,2.14,3.68,4.78,0,0-1.81-1.57-2.32-1.14,0,0,1.92.76,2.32,3.06.29,1.65,1.49,3.95,2.23,5.2l-33.46-39.41c1.08.81,3.77,2.8,5.03,3.27Z"/></g></g></g></g><path class="cls-3" d="m111.95,132.03c-.65-1.27-.66-2.78-.13-4.11.33-.82.67-1.62,1.2-2.27,2.14-2.61,4.1-5.27,5.41-8.43,1.37-3.3,4.6-4.54,8.44-3.46,3.5.98,7,2.01,10.47,3.1,1.52.48,3.16,1.06,3.41,2.93.25,1.81-.76,3.2-2.15,4.2-6.94,4.99-14.58,8.36-23.02,9.79-1.7.29-2.91-.35-3.63-1.76Z"/><path class="cls-2" d="m148.09,142.43h0s.01,0,.01,0l-.12.61h0c-1.4,2.43-2.65,4.91-4.07,7.37-2.41,4.17-2.06,8.61-1.18,13.06.61,3.08.38,3.53-2.69,3.92-.99.13-2.01.15-3,.08-1.45-.11-2.2-1.12-1.42-2.3,1.62-2.48,1.46-5.3,1.9-7.99.57-3.57,1.36-6.89,4.36-9.33,1.56-1.27,1.61-3.14,1.45-5.05-.2-2.35,1.06-3.34,3.25-2.55.54.2.95.74,1.37,1.23.19.22.26.51.2.78,0,.05-.02.1-.04.15Z"/><path class="cls-3" d="m154.71,143.03c-2.27.15-4.74.02-6.72.02l.12-.61c2.45-.12,4.92-.16,7.35-.44.61-.07,1.12-.95,1.68-1.46-.52-.49-.98-1.33-1.56-1.43-3.48-.55-6.98-1.15-10.49-1.31-2.55-.12-5.14.31-7.68.69-.8.12-1.51.87-2.33,1.37-2.25-2.12-2.46-4.33.2-5.93,3.86-2.32,7.98-4.24,12.11-6.06,2.32-1.03,4.64-.09,5.96,1.87,1.86,2.76,3.48,5.73,4.74,8.8,1.01,2.45-.52,4.3-3.38,4.49Z"/><path class="cls-2" d="m125.71,131.85c1.22-.51,2.51-1.05,4.17-1.75,1.05,3.89,2.23,7.62,3.04,11.44,1.25,5.87,2.35,11.77,3.27,17.69.23,1.49-.47,3.13-.76,4.7-.21,1.11-.45,2.21-.67,3.32.16.11.33.21.49.32-.8,0-1.6.05-2.39,0-3.02-.21-3.72-1.23-3.36-4.25.28-2.33.5-4.7.38-7.04-.41-8.26-1.96-16.34-4.16-24.42Z"/><path class="cls-3" d="m148.34,141.41c.59-.09,1.18-.18,1.78-.28v-.21c-.51-.03-1.02-.06-1.53-.09-.02-.07-.04-.14-.05-.21.67-.2,1.34-.41,2-.61-1.71-.23-3.43-.68-5.12-.61-1.54.06-3.06.68-4.46,1.03.43.16,1.06.38,1.69.61-.02.08-.04.17-.06.25-1.99-.34-3.98-.68-5.96-1.01-.03-.21-.07-.42-.1-.62,1.22-.41,2.45-1.18,3.65-1.15,4.58.12,9.16.44,13.73.83.74.06,1.42.83,2.13,1.27-.76.42-1.5,1.13-2.3,1.21-1.77.18-3.58.06-5.37.06,0-.16,0-.31,0-.47Z"/><g><ellipse class="cls-1" cx="117.19" cy="128.24" rx="2.59" ry=".95" transform="translate(-52 167.66) rotate(-60.69)"/><ellipse class="cls-1" cx="119.67" cy="120.85" rx="2.59" ry="1.45" transform="translate(-49.35 101.92) rotate(-38.89)"/><ellipse class="cls-1" cx="133.16" cy="119.16" rx="2.59" ry="1.66" transform="translate(-7.87 9.43) rotate(-3.94)"/><ellipse class="cls-1" cx="125.48" cy="124.09" rx="1.3" ry="1.98" transform="translate(-16.16 229.37) rotate(-81.31)"/><ellipse class="cls-1" cx="127.11" cy="118.01" rx="1.25" ry="2.88" transform="translate(-8.75 225.82) rotate(-81.31)"/></g><g><ellipse class="cls-1" cx="153.12" cy="136.42" rx="1.66" ry="2.58" transform="translate(5.63 278.91) rotate(-85.71)"/><ellipse class="cls-1" cx="141.79" cy="134.19" rx="1.3" ry="1.97" transform="translate(-27.86 230.8) rotate(-73.08)"/><ellipse class="cls-1" cx="149.14" cy="129.84" rx="1.24" ry="2.87" transform="translate(-18.48 234.74) rotate(-73.08)"/></g></g></g></g></svg>